HIERARCHY
ROOT Root
{
	OFFSET 0.00 0.00 0.00
	CHANNELS 6 Xposition Yposition Zposition Xrotation Yrotation Zrotation
	JOINT L_Femur
	{
		OFFSET 3.69615 0.00000 0.00000
		CHANNELS 3 Xrotation Yrotation Zrotation
		JOINT L_Tibia
		{
			OFFSET 0.00000 -15.48154 0.00000
			CHANNELS 3 Xrotation Yrotation Zrotation
			JOINT L_Foot
			{
				OFFSET 0.00000 -15.45804 0.00000
				CHANNELS 3 Xrotation Yrotation Zrotation
				JOINT L_Toe
				{
					OFFSET 0.00000 -1.61659 6.03322
					CHANNELS 3 Xrotation Yrotation Zrotation
					End Site
					{
						OFFSET 0.00000 0.00000 2.95275
					}
				}
			}
		}
	}
	JOINT R_Femur
	{
		OFFSET -3.69615 0.00000 0.00000
		CHANNELS 3 Xrotation Yrotation Zrotation
		JOINT R_Tibia
		{
			OFFSET 0.00000 -15.48154 0.00000
			CHANNELS 3 Xrotation Yrotation Zrotation
			JOINT R_Foot
			{
				OFFSET 0.00000 -15.45804 0.00000
				CHANNELS 3 Xrotation Yrotation Zrotation
				JOINT R_Toe
				{
					OFFSET 0.00000 -1.61659 6.03322
					CHANNELS 3 Xrotation Yrotation Zrotation
					End Site
					{
						OFFSET 0.00000 0.00000 2.95275
					}
				}
			}
		}
	}
	JOINT LowerBack
	{
		OFFSET 0.00000 0.03937 0.00000
		CHANNELS 3 Xrotation Yrotation Zrotation
		JOINT Thorax
		{
			OFFSET 0.00000 8.86644 0.00000
			CHANNELS 3 Xrotation Yrotation Zrotation
			JOINT Neck
			{
				OFFSET 0.00000 9.52797 0.00000
				CHANNELS 3 Xrotation Yrotation Zrotation
				JOINT Head
				{
					OFFSET 0.00000 6.76959 0.00000
					CHANNELS 3 Xrotation Yrotation Zrotation
					End Site
					{
						OFFSET 0.00000 4.52755 0.00000
					}
				}
			}
			JOINT L_Collar
			{
				OFFSET 0.00000 9.52797 0.00000
				CHANNELS 3 Xrotation Yrotation Zrotation
				JOINT L_Humerus
				{
					OFFSET 6.91428 -0.00003 0.00000
					CHANNELS 3 Xrotation Yrotation Zrotation
					JOINT L_Elbow
					{
						OFFSET 11.23919 -0.00004 0.00000
						CHANNELS 3 Xrotation Yrotation Zrotation
						JOINT L_Wrist
						{
							OFFSET 9.07538 -0.00003 0.00000
							CHANNELS 3 Xrotation Yrotation Zrotation
							JOINT L_Thumb
							{
								OFFSET 0.00000 0.00000 0.00000
								CHANNELS 3 Xrotation Yrotation Zrotation
								End Site
								{
									OFFSET 0.00000 0.00000 3.93700
								}
							}
							End Site
							{
								OFFSET 3.93700 -0.00001 0.00000
							}
						}
					}
				}
			}
			JOINT R_Collar
			{
				OFFSET 0.00000 9.52797 0.00000
				CHANNELS 3 Xrotation Yrotation Zrotation
				JOINT R_Humerus
				{
					OFFSET -6.91428 -0.00003 0.00000
					CHANNELS 3 Xrotation Yrotation Zrotation
					JOINT R_Elbow
					{
						OFFSET -11.23919 -0.00004 0.00000
						CHANNELS 3 Xrotation Yrotation Zrotation
						JOINT R_Wrist
						{
							OFFSET -9.07538 -0.00003 0.00000
							CHANNELS 3 Xrotation Yrotation Zrotation
							JOINT R_Thumb
							{
								OFFSET 0.00000 0.00000 0.00000
								CHANNELS 3 Xrotation Yrotation Zrotation
								End Site
								{
									OFFSET 0.00000 0.00000 3.93700
								}
							}
							End Site
							{
								OFFSET -5.39369 -0.00002 0.00000
							}
						}
					}
				}
			}
		}
	}
}
MOTION
Frames: 17
Frame Time: 0.033332
 53.4027 31.9479 -23.0988 -11.3567 58.3542 8.4439 11.7255 18.0322 15.2771 42.6458 -0.0000 0.0000 7.0494 -19.6443 -19.7493 -44.6312 0.0000 -0.0000 -10.6691 -16.0588 9.7485 18.6450 0.0000 -0.0000 2.3103 -6.3520 17.8794 -18.5302 0.0000 -0.0000 -14.5033 -7.7064 -1.0029 26.1079 -7.6519 -0.1443 14.2130 -7.6272 0.8062 -32.6655 -8.9311 3.3317 2.2831 9.2923 8.3556 -28.9556 -22.0957 -83.5735 -0.0001 -31.4143 -0.0000 -8.3727 -16.8050 -9.8239 -0.0000 0.0000 -0.0000 1.3340 4.5748 -8.6146 4.1303 7.4961 85.7216 -0.0000 9.2328 0.0000 -5.4363 -3.6073 3.1186 -0.0000 0.0000 -0.0000
 54.3404 32.1252 -22.0034 -11.3758 56.7422 7.8037 5.2707 14.3182 17.8056 55.2454 -0.0000 0.0000 14.6366 -17.5693 -22.5682 -32.6734 -0.0000 0.0000 -5.9244 -17.3002 11.4484 16.6479 -0.0000 0.0000 1.0502 -3.0387 17.5066 -18.4952 -0.0000 0.0000 -14.0474 -7.8297 -1.1529 25.4773 -7.2959 0.6784 14.1720 -7.6590 1.4562 -31.3279 -8.2443 3.6451 2.7751 9.4901 8.9821 -26.8155 -21.1203 -85.8162 -0.0001 -27.8274 -0.0000 -8.7839 -16.0672 -10.9184 -0.0000 0.0000 -0.0000 1.1264 4.7691 -8.9134 2.7203 7.2649 86.2963 -0.0000 9.5646 0.0000 -5.4221 -4.4365 3.3322 -0.0000 0.0000 -0.0000
 55.1795 32.3096 -20.9726 -10.7219 54.3850 7.0305 -0.7996 11.7388 19.0538 65.0072 0.0000 -0.0000 14.5794 -17.4375 -21.1527 -32.8011 0.0000 -0.0000 -1.8183 -16.2004 12.7851 13.9654 -0.0000 -0.0000 0.6880 -0.9310 17.6646 -18.4052 0.0000 0.0000 -13.9109 -7.3406 -0.9898 24.9877 -6.8576 0.5041 14.2847 -7.9589 2.2364 -30.5214 -7.3679 3.7614 3.1430 9.6515 9.0226 -24.6864 -21.0500 -86.7307 -0.0001 -23.6591 -0.0000 -9.2763 -15.5660 -12.2422 -0.0000 0.0000 -0.0000 1.1263 4.7223 -8.4732 1.1325 7.9653 86.3570 -0.0000 11.8860 0.0000 -5.9460 -4.3616 4.1947 -0.0000 0.0000 -0.0000
 55.9534 32.4980 -20.0048 -9.7289 50.3616 6.6569 -5.8169 10.5307 18.6238 71.2514 -0.0000 0.0000 9.9758 -16.1751 -20.8118 -32.3342 -0.0000 0.0000 1.4972 -13.4769 13.1244 11.5036 0.0000 -0.0000 0.7425 1.0080 17.3469 -18.3204 0.0000 0.0000 -13.8810 -6.3467 -0.8675 24.7486 -6.2092 -0.3315 14.2836 -7.6192 2.5207 -30.3494 -6.3444 3.8164 3.5134 10.5090 8.5644 -22.3256 -21.1959 -86.7412 -0.0001 -19.8712 -0.0000 -8.5266 -15.0552 -12.5847 -0.0000 0.0000 -0.0000 0.9564 4.9233 -8.0037 -0.4364 9.8798 86.1546 -0.0001 16.0449 0.0000 -6.9877 -3.2259 4.2108 -0.0000 0.0000 -0.0000
 56.7249 32.6809 -19.0517 -9.1779 45.5240 6.9514 -9.6261 9.7454 17.1895 73.8932 -0.0000 -0.0000 7.6742 -13.2687 -20.3834 -32.5751 -0.0000 0.0000 4.8910 -10.4632 12.6122 9.1523 0.0000 0.0000 1.0134 3.3737 16.6099 -18.3011 -0.0000 0.0000 -13.7970 -5.4295 -0.8823 24.8090 -5.6755 -1.2525 14.2852 -6.5986 2.2196 -30.5569 -5.1173 3.6546 4.0529 11.6511 7.8244 -19.3477 -20.8049 -86.2936 -0.0001 -16.8278 -0.0000 -7.9487 -14.7237 -11.7317 -0.0000 0.0000 -0.0000 0.5900 5.2908 -7.9974 -2.0061 12.4358 86.0797 -0.0001 21.4611 0.0000 -7.2445 -2.1671 3.1563 -0.0000 0.0000 -0.0000
 57.4425 32.7999 -18.1393 -8.3783 40.6924 6.8232 -12.9240 8.4298 15.3676 73.5717 0.0000 0.0000 4.6674 -9.0818 -20.0817 -31.9433 0.0000 0.0000 7.7580 -8.5897 11.8581 7.5744 -0.0000 0.0000 1.0811 6.5314 16.2240 -18.3968 -0.0000 0.0000 -13.7711 -4.8792 -0.8781 24.7750 -5.2952 -1.6870 14.2695 -5.2977 1.6540 -30.8018 -3.2058 3.0322 4.7952 12.5323 6.9650 -15.8108 -19.9225 -85.7960 -0.0001 -14.6250 -0.0000 -8.4226 -14.8057 -9.8920 -0.0000 0.0000 -0.0000 0.3366 5.6164 -8.5976 -3.8760 14.8260 86.3255 -0.0001 27.5708 0.0000 -6.5485 -1.3593 2.1131 -0.0000 0.0000 -0.0000
 58.1017 32.8559 -17.2714 -7.2745 35.7032 6.2999 -15.8149 6.9380 13.5418 70.3861 0.0000 -0.0000 1.2932 -4.6930 -18.7033 -31.3364 -0.0000 -0.0000 9.6729 -7.6531 10.8916 7.2743 -0.0000 0.0000 0.6944 10.5397 15.4959 -18.8678 0.0000 0.0000 -13.9094 -4.2962 -0.6547 24.9227 -4.8997 -2.0920 13.9133 -3.8261 1.0824 -30.7980 -1.4695 2.7402 5.4959 13.2059 6.4982 -12.9352 -17.9022 -86.0405 -0.0000 -11.9929 -0.0000 -8.3311 -14.9054 -9.2553 -0.0000 0.0000 -0.0000 -0.0006 5.8432 -8.9977 -5.7266 16.9827 86.3785 -0.0001 33.9143 0.0000 -6.9047 -0.6481 1.9402 -0.0000 0.0000 -0.0000
 58.6905 32.8640 -16.4113 -6.1035 30.6552 5.5944 -18.1635 5.6382 12.1067 64.4672 0.0000 0.0000 -0.8980 -0.9194 -15.9720 -30.8955 -0.0000 0.0000 10.6989 -5.5687 9.9251 7.7422 0.0000 -0.0000 0.0984 13.3024 15.4125 -19.1720 -0.0000 -0.0000 -14.1937 -3.8035 -0.6381 25.3395 -4.3506 -2.0607 13.5054 -2.2070 0.5364 -30.9086 0.0548 2.7650 6.1292 13.8775 6.1253 -10.6899 -16.0682 -86.8548 -0.0000 -9.2125 -0.0000 -8.7988 -15.2063 -9.3097 -0.0000 0.0000 -0.0000 -0.2319 6.2119 -9.1502 -7.6897 19.3895 85.9843 -0.0002 39.6093 0.0001 -8.1331 -0.1808 2.3480 -0.0000 0.0000 -0.0000
 59.2094 32.8291 -15.5486 -4.9484 25.7876 4.7408 -19.8986 4.8049 11.4081 55.9488 0.0000 -0.0000 -2.2997 0.5475 -15.1013 -30.0937 -0.0000 -0.0000 11.6282 -2.9190 9.1283 7.8780 -0.0000 -0.0000 -0.3574 15.3542 14.8362 -19.7493 -0.0000 -0.0000 -14.3974 -3.4653 -0.8007 25.6410 -3.7196 -1.6174 13.3871 -0.5222 -0.0337 -31.4839 1.3288 2.9741 6.8500 14.6121 5.8173 -8.7959 -15.3278 -87.8661 -0.0000 -7.2589 -0.0000 -6.5101 -13.6140 -10.3735 -0.0000 0.0000 -0.0000 -0.5163 6.6070 -9.1651 -9.5325 22.3553 85.3342 -0.0002 44.2047 0.0001 -9.2323 0.1550 2.8793 -0.0000 0.0000 -0.0000
 59.6948 32.7599 -14.6569 -3.9917 22.0054 3.7450 -20.8735 3.4518 10.9562 44.8708 -0.0000 0.0000 -2.1768 -0.6000 -16.3520 -29.8572 -0.0000 -0.0000 13.0213 -1.0410 8.6344 7.2723 -0.0000 -0.0000 -0.8462 17.3649 15.3121 -19.6706 -0.0000 0.0000 -14.6453 -3.5441 -0.9783 26.0190 -3.4242 -0.9450 13.5919 0.7469 -0.3884 -32.4762 2.6129 3.0932 7.5356 14.9914 5.7559 -7.0892 -16.0526 -88.9649 -0.0000 -6.2247 -0.0000 -5.3480 -12.9755 -11.1656 -0.0000 0.0000 -0.0000 -0.8117 6.9589 -9.1575 -11.0659 25.1523 84.7741 -0.0002 47.9907 0.0001 -8.4148 -0.0531 3.0531 -0.0000 0.0000 -0.0000
 60.1321 32.6466 -13.7273 -3.1586 19.4651 2.5184 -21.1663 1.9740 10.6547 31.8553 -0.0000 0.0000 -1.2183 -1.5012 -17.8456 -29.9010 -0.0000 -0.0000 14.5650 -0.2730 8.6090 6.5690 -0.0000 -0.0000 -0.8251 19.7315 15.3840 -20.4824 0.0000 0.0000 -14.8596 -3.9107 -1.0942 26.4317 -3.3563 -0.0990 13.8334 1.3701 -0.5081 -33.7115 3.4731 3.1605 8.1152 15.0590 5.9701 -5.8711 -17.7330 -89.9127 -0.0000 -6.1172 -0.0000 -4.8699 -12.3978 -12.2543 -0.0000 0.0000 -0.0000 -0.9679 6.9874 -9.1364 -12.2151 27.2647 84.4502 -0.0003 50.9880 0.0001 -6.8971 -0.4275 3.0506 -0.0000 0.0000 -0.0000
 60.5489 32.4924 -12.7058 -2.6990 17.5424 1.2501 -20.6326 2.9388 10.7992 17.8300 -0.0000 0.0000 -0.4274 -4.2634 -18.8815 -30.5916 0.0000 -0.0000 16.6457 -0.2542 8.8366 5.7706 -0.0000 0.0000 -0.6425 22.3908 15.4937 -20.8714 0.0000 -0.0000 -15.0288 -4.2018 -1.0587 27.0023 -3.2242 0.7335 14.0783 1.4492 -0.5888 -34.6562 3.2111 3.3317 8.4986 14.9927 6.3850 -5.1260 -19.4029 -90.4987 -0.0000 -6.6128 -0.0000 -4.6270 -12.1523 -13.2226 -0.0000 0.0000 -0.0000 -0.9025 6.9514 -9.1679 -12.5830 28.1810 84.3168 -0.0003 53.3016 0.0001 -5.9029 -0.6199 2.8946 -0.0000 0.0000 -0.0000
 61.0327 32.2889 -11.5610 -2.8012 15.5039 0.5385 -19.5079 7.6109 10.4770 5.2058 -0.0000 -0.0000 0.3227 -11.0546 -22.6451 -30.7336 0.0000 0.0000 19.2982 -1.0450 8.4457 5.5318 0.0000 0.0000 -0.7754 25.8123 16.1053 -21.6689 -0.0000 0.0000 -15.1100 -4.1050 -0.8375 27.6386 -2.9688 1.0501 14.4541 1.0131 -0.7439 -35.1450 1.8403 3.4468 8.6784 15.1208 6.6714 -4.4671 -21.0603 -90.3533 -0.0000 -7.8913 -0.0000 -5.2152 -12.2637 -13.7505 -0.0000 0.0000 -0.0000 -0.6079 7.0053 -9.3697 -12.1281 28.0594 84.3647 -0.0003 54.6250 0.0002 -6.1397 -0.4758 2.7711 -0.0000 0.0000 -0.0000
 61.5502 32.0625 -10.3628 -3.0016 13.4476 0.2306 -18.9041 8.3904 9.5585 -0.5276 -0.0000 0.0000 0.7297 -16.4233 -23.3514 -31.3108 0.0000 -0.0000 21.3723 -2.2802 7.4814 6.7603 0.0000 -0.0000 -1.4370 29.3509 16.4929 -23.1699 0.0000 0.0000 -15.1817 -3.8503 -0.5187 28.1383 -2.8104 0.9204 14.8966 0.2898 -1.1136 -35.3427 -0.6018 3.4993 8.5932 15.4027 6.3626 -3.8725 -21.4371 -89.1511 -0.0000 -9.3586 -0.0000 -5.2821 -12.3487 -13.9433 -0.0000 0.0000 -0.0000 -0.3972 7.1381 -9.5306 -11.1950 27.6885 84.4694 -0.0003 54.2411 0.0001 -7.5747 -0.1767 2.7304 -0.0000 0.0000 -0.0000
 62.0340 31.8179 -9.0680 -3.2702 11.3554 0.2168 -19.6272 5.2651 8.9342 3.2947 0.0000 -0.0000 0.7090 -19.0559 -22.5215 -32.2005 -0.0000 0.0000 22.7481 -3.0208 6.2379 9.4337 0.0000 -0.0000 -1.8136 31.9313 16.2081 -25.7969 -0.0000 -0.0000 -15.2482 -3.5096 -0.4369 28.3271 -2.6041 0.6450 15.1380 -0.7359 -1.5587 -34.4618 -3.7735 3.4438 8.4483 15.7415 5.7661 -3.4249 -21.3118 -87.2881 -0.0000 -10.8762 -0.0000 -6.1022 -12.6612 -13.4251 -0.0000 0.0000 -0.0000 -0.1779 7.1274 -9.7197 -10.0892 27.4115 84.8252 -0.0003 51.8862 0.0001 -7.9357 0.0893 2.9396 -0.0000 0.0000 -0.0000
 62.5195 31.5868 -7.6219 -3.5018 9.3373 0.6773 -20.3095 1.3995 8.1609 10.0907 0.0000 0.0000 4.5293 -23.8597 -24.4873 -33.8127 -0.0000 -0.0000 23.7524 -3.6771 4.4820 12.8803 -0.0000 -0.0000 -1.3870 33.7930 14.7037 -29.0557 -0.0000 -0.0000 -15.7650 -3.1339 -0.6694 28.3465 -2.5652 -0.0354 15.5525 -2.5200 -1.5209 -33.0091 -6.6684 3.2167 8.2564 15.9476 5.4478 -3.3556 -20.9003 -85.5160 -0.0000 -11.8843 -0.0000 -6.9836 -12.9384 -12.5216 -0.0000 0.0000 -0.0000 0.1446 7.0983 -9.8162 -8.8055 27.2662 85.2739 -0.0002 47.6144 0.0001 -7.8155 0.2513 2.8869 -0.0000 0.0000 -0.0000
 62.9899 31.4404 -6.1311 -3.5185 7.1144 1.6140 -21.0671 -5.0676 6.5707 18.3389 0.0000 -0.0000 5.7862 -18.2827 -27.1351 -32.6752 0.0000 -0.0000 23.4821 -3.9650 2.1296 17.8651 -0.0000 -0.0000 1.0714 34.7245 12.3935 -33.4611 0.0000 -0.0000 -16.1859 -2.6679 -1.0883 27.8105 -2.6796 -1.2026 15.6392 -4.1705 -1.5093 -30.9764 -10.0533 3.3215 7.9676 16.0902 4.8202 -3.5645 -21.2043 -83.4609 -0.0000 -12.1834 -0.0000 -7.3239 -14.2033 -10.1510 -0.0000 0.0000 -0.0000 0.2531 6.8193 -9.4339 -7.7181 27.2217 85.7249 -0.0002 40.8888 0.0001 -7.3296 0.4323 2.9294 -0.0000 0.0000 -0.0000
